HIERARCHY
ROOT hip
{
	OFFSET 0.000000 0.000000 0.000000 
	CHANNELS 6 Xposition Yposition Zposition Xrotation Zrotation Yrotation
	JOINT abdomen
	{
		OFFSET 0.000000 3.402643 0.000000 
		CHANNELS 3 Xrotation Zrotation Yrotation
		JOINT chest
		{
			OFFSET 0.000000 8.438565 -0.680529 
			CHANNELS 3 Xrotation Zrotation Yrotation
			JOINT neck
			{
				OFFSET 0.000000 10.207942 -0.272212 
				CHANNELS 3 Xrotation Zrotation Yrotation
				JOINT head
				{
					OFFSET 0.000000 3.130431 0.000000 
					CHANNELS 3 Xrotation Zrotation Yrotation
					End Site
					{
						OFFSET 0.000000 3.130435 0.000000 
					}
				}
			}
			JOINT lCollar
			{
				OFFSET 3.470700 6.669187 -0.816635 
				CHANNELS 3 Yrotation Zrotation Xrotation
				JOINT lShldr
				{
					OFFSET 3.198488 0.000000 0.000000 
					CHANNELS 3 Zrotation Yrotation Xrotation
					JOINT lForeArm
					{
						OFFSET 10.139888 0.000000 0.000000 
						CHANNELS 3 Yrotation Zrotation Xrotation
						JOINT lHand
						{
							OFFSET 8.370511 0.000000 0.000000 
							CHANNELS 3 Zrotation Yrotation Xrotation
							End Site
							{
								OFFSET 4.083176 0.000000 0.000000 
							}
						}
					}
				}
			}
			JOINT rCollar
			{
				OFFSET -3.470700 6.669187 -0.816635 
				CHANNELS 3 Yrotation Zrotation Xrotation
				JOINT rShldr
				{
					OFFSET -3.198488 0.000000 0.000000 
					CHANNELS 3 Zrotation Yrotation Xrotation
					JOINT rForeArm
					{
						OFFSET -10.139888 0.000000 0.000000 
						CHANNELS 3 Yrotation Zrotation Xrotation
						JOINT rHand
						{
							OFFSET -8.370511 0.000000 0.000000 
							CHANNELS 3 Zrotation Yrotation Xrotation
							End Site
							{
								OFFSET -4.083176 0.000000 0.000000 
							}
						}
					}
				}
			}
		}
	}
	JOINT lThigh
	{
		OFFSET 5.308129 -1.633274 1.361059 
		CHANNELS 3 Xrotation Zrotation Yrotation
		JOINT lShin
		{
			OFFSET -2.041588 -20.007561 0.000000 
			CHANNELS 3 Xrotation Zrotation Yrotation
			JOINT lFoot
			{
				OFFSET 0.000000 -19.190928 -1.224953 
				CHANNELS 3 Xrotation Yrotation Zrotation
				End Site
				{
					OFFSET 0.000000 -2.449906 4.627600 
				}
			}
		}
	}
	JOINT rThigh
	{
		OFFSET -5.308129 -1.633274 1.361059 
		CHANNELS 3 Xrotation Zrotation Yrotation
		JOINT rShin
		{
			OFFSET 2.041588 -20.007561 0.000000 
			CHANNELS 3 Xrotation Zrotation Yrotation
			JOINT rFoot
			{
				OFFSET 0.000000 -19.190928 -1.224953 
				CHANNELS 3 Xrotation Yrotation Zrotation
				End Site
				{
					OFFSET 0.000000 -2.449906 4.627600 
				}
			}
		}
	}
}
MOTION
Frames: 10
Frame Time: 0.033333
3.881001 52.273548 0.677548 177.529312 179.814453 0.869172 23.423870 -10.233294 -3.966030 -16.337891 12.734376 9.208983 51.063168 8.107644 2.471410 -68.320313 -8.544921 -1.552734 2.000000 -2.000000 0.000000 -44.931637 29.560547 39.682556 -77.992683 -0.799145 -2.854677 -23.063211 47.761421 4.844487 -2.000000 2.000000 0.000000 44.091797 -31.787109 38.705791 72.869492 0.825705 -2.638015 27.684313 -38.839645 -1.836321 -2.566367 8.166196 4.835751 15.789104 -5.048953 -1.773824 -4.447927 2.845612 2.034357 -0.392207 -8.799907 -15.637689 14.054270 5.003766 1.197355 -3.170244 6.808685 -7.447479 
3.792525 52.270145 0.526665 177.187515 179.814453 0.869172 23.271711 -10.153480 -4.123751 -16.152346 12.724610 9.248047 51.063168 8.107644 2.471410 -68.496094 -8.525390 -1.708985 2.000000 -2.000000 0.000000 -45.146484 29.726564 39.511719 -78.168472 -0.789396 -2.855243 -23.280193 47.659504 4.556837 -2.000000 2.000000 0.000000 44.335938 -31.308594 38.574223 73.045273 0.825705 -2.638015 27.478836 -38.833580 -1.821612 -2.665006 8.061587 4.467134 15.611793 -5.060988 -1.731449 -4.423319 2.977377 2.311746 -0.597072 -9.046684 -15.975945 14.234472 5.008049 1.368063 -2.917308 6.976572 -7.927165 
3.751352 52.274738 0.426373 177.011734 179.814453 1.044953 23.095556 -10.147776 -4.109457 -15.986329 12.539063 9.248047 51.063168 8.107644 2.471410 -68.691414 -8.662108 -1.630860 2.000000 -2.000000 0.000000 -45.517578 29.814455 39.765629 -78.507408 -0.597944 -2.758788 -23.417194 47.672825 4.754734 -2.000000 2.000000 0.000000 44.736328 -31.582033 38.002697 73.221611 0.817087 -2.658072 27.663057 -38.506748 -2.377401 -2.686019 8.086162 4.112734 15.247957 -5.058586 -1.525933 -4.304763 3.199933 2.221825 -0.713104 -9.160195 -16.158566 14.409641 5.052550 0.929817 -3.091320 7.229618 -7.785238 
3.756061 52.287788 0.331890 176.835953 179.814453 1.220735 22.942991 -10.064552 -4.276326 -15.986329 12.539063 9.248047 51.063168 8.107644 2.471410 -68.886719 -8.808593 -1.552735 2.000000 -2.000000 0.000000 -46.113281 29.208982 38.911018 -78.344261 -0.789396 -2.855243 -23.501143 47.968197 5.056180 -2.000000 2.000000 0.000000 44.765625 -31.923830 38.134766 73.397400 0.807338 -2.658637 28.214966 -37.936859 -2.644942 -2.391748 8.336520 3.790693 14.899629 -5.146092 -1.496766 -4.447462 2.988936 1.310901 -0.820653 -9.228363 -16.859896 14.583432 5.043896 0.777982 -2.978862 7.682466 -8.545073 
3.777157 52.292942 0.229687 176.650406 179.824219 1.738311 22.778069 -10.223067 -4.327210 -15.986329 12.539063 9.423827 51.063168 8.107644 2.471410 -68.906258 -8.974608 -1.660157 2.000000 -2.000000 0.000000 -46.005859 28.095701 37.524132 -78.344261 -0.789396 -2.855243 -24.700008 49.065525 5.583147 -2.000000 2.000000 0.000000 45.624996 -32.109375 37.400223 72.869492 0.825705 -2.638015 27.512154 -38.336163 -1.448841 -2.841267 7.995009 3.234300 14.564268 -5.128107 -1.466990 -4.395979 3.151730 1.622219 -0.762025 -9.355737 -18.109619 14.760852 4.993249 1.263952 -3.481159 7.628952 -8.855359 
3.767622 52.324940 0.120994 176.650406 179.824219 2.265655 22.228222 -10.315409 -4.165515 -15.986329 12.539063 9.599609 51.063168 8.107644 2.471410 -68.544922 -8.847655 -2.646484 2.000000 -2.000000 0.000000 -45.615234 26.787109 35.883312 -78.520042 -0.779647 -2.855808 -26.485565 50.416004 6.457474 -2.000000 2.000000 0.000000 47.246094 -32.500000 36.606079 71.990555 0.864702 -2.635753 26.496473 -40.016884 0.880933 -2.645241 8.003356 2.890048 14.543602 -5.127957 -1.465346 -4.870120 3.038440 1.790869 -0.860481 -9.399978 -18.966543 15.111686 4.975233 1.456403 -3.223233 7.813620 -9.328759 
3.685381 52.348576 0.106518 176.650406 179.648438 3.134826 22.130756 -10.471693 -4.611917 -15.976563 12.714844 9.640821 51.063168 8.107644 2.471410 -68.291016 -8.378905 -3.896485 2.000000 -2.000000 0.000000 -45.927731 24.609375 33.900551 -77.816635 -0.798580 -2.844932 -26.197708 51.355915 8.292397 -2.000000 2.000000 0.000000 48.789063 -32.363281 35.214844 71.289131 1.063646 -2.692842 24.415403 -42.226555 4.566620 -2.801921 7.926823 1.843893 14.190248 -5.127156 -1.465083 -4.419332 3.149483 1.590043 -0.596174 -9.668387 -20.791878 15.118325 4.984678 1.477768 -2.279932 8.518722 -10.106575 
3.539751 52.374023 0.234582 176.835953 179.472656 4.365324 22.626093 -10.524649 -5.610223 -16.113281 13.242188 9.550781 51.063168 8.107644 2.471410 -68.144531 -7.207030 -5.147709 2.000000 -2.000000 0.000000 -47.939453 20.566406 31.146008 -75.014740 -1.064070 -2.868644 -20.080103 52.692600 13.045587 -2.000000 2.000000 0.000000 50.048828 -30.556641 33.969643 69.175529 0.966849 -2.541822 20.917461 -44.533089 9.129088 -3.189948 7.824994 0.266052 14.373713 -5.046073 -1.480770 -3.178000 3.158319 1.626485 -0.207336 -9.838144 -24.150673 15.284228 4.983215 1.462086 -0.696030 9.981750 -11.848862 
3.310804 52.405407 0.444760 177.353531 178.945313 7.861507 24.375544 -10.479917 -8.181299 -16.171877 14.960937 8.867188 51.063168 8.107644 2.471410 -68.564453 -3.095703 -8.115763 2.000000 -2.000000 0.000000 -51.884762 12.500000 27.248209 -68.507317 -1.467323 -2.737695 -2.980822 51.509800 23.695223 -2.000000 2.000000 0.000000 49.599609 -25.498047 33.511417 64.437485 1.285739 -2.474434 15.905117 -47.359711 14.591555 -4.184407 7.823709 -2.563999 15.937901 -4.587924 -2.276047 -3.312789 3.137569 1.020652 0.700606 -9.818869 -28.113577 15.454700 4.964633 1.463861 0.405198 10.098468 -12.561973 
3.027493 52.423836 0.661117 -1.611328 1.914063 -166.542648 26.945560 -10.457273 -12.100036 -16.318359 17.392578 7.958985 51.063168 8.107644 2.471410 -69.052734 3.466796 -13.056641 2.000000 -2.000000 0.000000 -55.664063 0.908203 22.675938 -59.201496 -1.800745 -2.414924 17.911493 47.157089 34.430267 -2.000000 2.000000 0.000000 48.496094 -16.181641 32.926964 51.608238 1.768359 -1.859128 2.021290 -50.793217 27.046516 -5.552235 7.934657 -7.749239 17.369188 -4.716084 -2.230785 -3.389052 2.353763 0.952335 2.078209 -9.011388 -31.695465 15.836634 4.954862 1.503792 0.696534 8.350407 -10.993367 
